<svg width="20" height="20" viewBox="0 0 20 20" fill="none" xmlns="http://www.w3.org/2000/svg">
<mask id="mask0_700_792" style="mask-type:alpha" maskUnits="userSpaceOnUse" x="0" y="0" width="20" height="20">
<rect width="20" height="20" fill="#D9D9D9"/>
</mask>
<g mask="url(#mask0_700_792)">
<path d="M9.37492 10.625H5.20825C5.03117 10.625 4.88277 10.5651 4.76304 10.4452C4.64318 10.3254 4.58325 10.1769 4.58325 9.9998C4.58325 9.82258 4.64318 9.67418 4.76304 9.55459C4.88277 9.43487 5.03117 9.37501 5.20825 9.37501H9.37492V5.20834C9.37492 5.03126 9.43485 4.88286 9.55471 4.76314C9.67457 4.64327 9.82304 4.58334 10.0001 4.58334C10.1773 4.58334 10.3258 4.64327 10.4453 4.76314C10.5651 4.88286 10.6249 5.03126 10.6249 5.20834V9.37501H14.7916C14.9687 9.37501 15.1171 9.43494 15.2368 9.5548C15.3567 9.67466 15.4166 9.82314 15.4166 10.0002C15.4166 10.1774 15.3567 10.3258 15.2368 10.4454C15.1171 10.5651 14.9687 10.625 14.7916 10.625H10.6249V14.7917C10.6249 14.9688 10.565 15.1172 10.4451 15.2369C10.3253 15.3567 10.1768 15.4167 9.99971 15.4167C9.82249 15.4167 9.67409 15.3567 9.5545 15.2369C9.43478 15.1172 9.37492 14.9688 9.37492 14.7917V10.625Z" fill="white"/>
</g>
</svg>
