<svg width="32" height="32" viewBox="0 0 32 32" fill="none" xmlns="http://www.w3.org/2000/svg">
<mask id="mask0_6_294" style="mask-type:alpha" maskUnits="userSpaceOnUse" x="0" y="0" width="32" height="32">
<rect width="32" height="32" fill="#D9D9D9"/>
</mask>
<g mask="url(#mask0_6_294)">
<path d="M15 17H8.33331C8.04998 17 7.81254 16.9041 7.62098 16.7123C7.4292 16.5205 7.33331 16.283 7.33331 15.9996C7.33331 15.7161 7.4292 15.4786 7.62098 15.2873C7.81254 15.0958 8.04998 15 8.33331 15H15V8.33331C15 8.04998 15.0959 7.81254 15.2876 7.62098C15.4794 7.4292 15.717 7.33331 16.0003 7.33331C16.2839 7.33331 16.5213 7.4292 16.7126 7.62098C16.9042 7.81254 17 8.04998 17 8.33331V15H23.6666C23.95 15 24.1874 15.0959 24.379 15.2876C24.5708 15.4794 24.6666 15.717 24.6666 16.0003C24.6666 16.2839 24.5708 16.5213 24.379 16.7126C24.1874 16.9042 23.95 17 23.6666 17H17V23.6666C17 23.95 16.9041 24.1874 16.7123 24.379C16.5205 24.5708 16.283 24.6666 15.9996 24.6666C15.7161 24.6666 15.4786 24.5708 15.2873 24.379C15.0958 24.1874 15 23.95 15 23.6666V17Z" fill="#414141"/>
</g>
</svg>
