<svg width="32" height="32" viewBox="0 0 32 32" fill="none" xmlns="http://www.w3.org/2000/svg">
<mask id="mask0_6_298" style="mask-type:alpha" maskUnits="userSpaceOnUse" x="0" y="0" width="32" height="32">
<rect width="32" height="32" fill="#D9D9D9"/>
</mask>
<g mask="url(#mask0_6_298)">
<path d="M17.3647 15.9918L12.4132 20.9433C12.2447 21.1118 12.1633 21.3083 12.169 21.5328C12.1746 21.7574 12.2616 21.9539 12.43 22.1223C12.5984 22.2907 12.7949 22.3749 13.0195 22.3749C13.244 22.3749 13.4405 22.2907 13.609 22.1223L18.7963 16.9518C18.9311 16.817 19.0321 16.6655 19.0995 16.497C19.1668 16.3286 19.2005 16.1602 19.2005 15.9918C19.2005 15.8233 19.1668 15.6549 19.0995 15.4865C19.0321 15.3181 18.9311 15.1665 18.7963 15.0318L13.609 9.8444C13.4405 9.67598 13.2412 9.59457 13.0111 9.60019C12.7809 9.6058 12.5816 9.69282 12.4132 9.86124C12.2447 10.0297 12.1605 10.2262 12.1605 10.4507C12.1605 10.6753 12.2447 10.8718 12.4132 11.0402L17.3647 15.9918Z" fill="#414141"/>
</g>
</svg>
