<svg width="32" height="32" viewBox="0 0 32 32" fill="none" xmlns="http://www.w3.org/2000/svg">
<mask id="mask0_6_297" style="mask-type:alpha" maskUnits="userSpaceOnUse" x="0" y="0" width="32" height="32">
<rect width="32" height="32" fill="#D9D9D9"/>
</mask>
<g mask="url(#mask0_6_297)">
<path d="M14.6353 15.9918L19.5868 20.9433C19.7553 21.1118 19.8367 21.3083 19.831 21.5328C19.8254 21.7574 19.7384 21.9539 19.57 22.1223C19.4016 22.2907 19.2051 22.3749 18.9805 22.3749C18.756 22.3749 18.5595 22.2907 18.391 22.1223L13.2037 16.9518C13.0689 16.817 12.9679 16.6655 12.9005 16.497C12.8332 16.3286 12.7995 16.1602 12.7995 15.9918C12.7995 15.8233 12.8332 15.6549 12.9005 15.4865C12.9679 15.3181 13.0689 15.1665 13.2037 15.0318L18.391 9.8444C18.5595 9.67598 18.7588 9.59457 18.9889 9.60019C19.2191 9.6058 19.4184 9.69282 19.5868 9.86124C19.7553 10.0297 19.8395 10.2262 19.8395 10.4507C19.8395 10.6753 19.7553 10.8718 19.5868 11.0402L14.6353 15.9918Z" fill="#414141"/>
</g>
</svg>
