<svg width="16" height="16" viewBox="0 0 16 16" fill="none" xmlns="http://www.w3.org/2000/svg">
<path d="M9.62016 12.5467C9.49349 12.5467 9.36683 12.5 9.26683 12.4C9.07349 12.2067 9.07349 11.8867 9.26683 11.6933L12.9602 7.99999L9.26683 4.30665C9.07349 4.11332 9.07349 3.79332 9.26683 3.59999C9.46016 3.40665 9.78016 3.40665 9.97349 3.59999L14.0202 7.64665C14.2135 7.83999 14.2135 8.15999 14.0202 8.35332L9.97349 12.4C9.87349 12.5 9.74683 12.5467 9.62016 12.5467Z" fill="#717171"/>
<path d="M13.5533 8.5H2.33325C2.05992 8.5 1.83325 8.27333 1.83325 8C1.83325 7.72667 2.05992 7.5 2.33325 7.5H13.5533C13.8266 7.5 14.0533 7.72667 14.0533 8C14.0533 8.27333 13.8266 8.5 13.5533 8.5Z" fill="#717171"/>
</svg>
