<svg width="32" height="32" viewBox="0 0 32 32" fill="none" xmlns="http://www.w3.org/2000/svg">
<mask id="mask0_6_1214" style="mask-type:alpha" maskUnits="userSpaceOnUse" x="0" y="0" width="32" height="32">
<rect x="32" y="32" width="32" height="32" transform="rotate(-180 32 32)" fill="#D9D9D9"/>
</mask>
<g mask="url(#mask0_6_1214)">
<path d="M15.336 15.2291L10.7612 19.8041C10.6056 19.9595 10.4101 20.0391 10.1746 20.0428C9.93931 20.0464 9.74022 19.9668 9.57736 19.8041C9.41468 19.6413 9.33334 19.444 9.33334 19.2122C9.33334 18.9805 9.41468 18.7832 9.57736 18.6203L14.6253 13.5724C14.7305 13.4674 14.8414 13.3933 14.958 13.35C15.0746 13.3068 15.2006 13.2852 15.336 13.2852C15.4713 13.2852 15.5973 13.3068 15.7139 13.35C15.8305 13.3933 15.9414 13.4674 16.0467 13.5724L21.0946 18.6203C21.2499 18.7759 21.3295 18.9714 21.3332 19.2069C21.3368 19.4422 21.2572 19.6413 21.0946 19.8041C20.9317 19.9668 20.7344 20.0482 20.5026 20.0482C20.2709 20.0482 20.0736 19.9668 19.9107 19.8041L15.336 15.2291Z" fill="#414141"/>
</g>
</svg>
