<svg width="32" height="32" viewBox="0 0 32 32" fill="none" xmlns="http://www.w3.org/2000/svg">
<mask id="mask0_6_293" style="mask-type:alpha" maskUnits="userSpaceOnUse" x="0" y="0" width="32" height="32">
<rect width="32" height="32" fill="#D9D9D9"/>
</mask>
<g mask="url(#mask0_6_293)">
<path d="M16.664 16.7709L21.2388 12.1959C21.3944 12.0405 21.5899 11.9609 21.8254 11.9572C22.0607 11.9536 22.2598 12.0332 22.4226 12.1959C22.5853 12.3587 22.6667 12.556 22.6667 12.7878C22.6667 13.0195 22.5853 13.2168 22.4226 13.3797L17.3747 18.4276C17.2695 18.5326 17.1586 18.6067 17.042 18.65C16.9254 18.6932 16.7994 18.7149 16.664 18.7149C16.5287 18.7149 16.4027 18.6932 16.2861 18.65C16.1695 18.6067 16.0586 18.5326 15.9533 18.4276L10.9054 13.3797C10.7501 13.2241 10.6705 13.0286 10.6668 12.7931C10.6632 12.5578 10.7428 12.3587 10.9054 12.1959C11.0683 12.0332 11.2656 11.9518 11.4974 11.9518C11.7291 11.9518 11.9264 12.0332 12.0893 12.1959L16.664 16.7709Z" fill="#414141"/>
</g>
</svg>
