<svg width="32" height="32" viewBox="0 0 32 32" fill="none" xmlns="http://www.w3.org/2000/svg">
<path d="M12 6V9" stroke="#414141" stroke-width="1.5" stroke-miterlimit="10" stroke-linecap="round" stroke-linejoin="round"/>
<path d="M20 6V9" stroke="#414141" stroke-width="1.5" stroke-miterlimit="10" stroke-linecap="round" stroke-linejoin="round"/>
<path d="M22.2 25.4C23.9673 25.4 25.4 23.9673 25.4 22.2C25.4 20.4327 23.9673 19 22.2 19C20.4327 19 19 20.4327 19 22.2C19 23.9673 20.4327 25.4 22.2 25.4Z" stroke="#414141" stroke-width="1.5" stroke-linecap="round" stroke-linejoin="round"/>
<path d="M26 26L25 25" stroke="#414141" stroke-width="1.5" stroke-linecap="round" stroke-linejoin="round"/>
<path d="M7.5 13.0898H24.5" stroke="#414141" stroke-width="1.5" stroke-miterlimit="10" stroke-linecap="round" stroke-linejoin="round"/>
<path d="M17.37 26H12C8.5 26 7 24 7 21V12.5C7 9.5 8.5 7.5 12 7.5H20C23.5 7.5 25 9.5 25 12.5V17" stroke="#414141" stroke-width="1.5" stroke-miterlimit="10" stroke-linecap="round" stroke-linejoin="round"/>
<path d="M15.9945 17.7002H16.0035" stroke="#414141" stroke-width="2" stroke-linecap="round" stroke-linejoin="round"/>
<path d="M12.2953 17.7002H12.3043" stroke="#414141" stroke-width="2" stroke-linecap="round" stroke-linejoin="round"/>
<path d="M12.2953 20.7002H12.3043" stroke="#414141" stroke-width="2" stroke-linecap="round" stroke-linejoin="round"/>
</svg>
