<svg width="24" height="24" viewBox="0 0 24 24" fill="none" xmlns="http://www.w3.org/2000/svg">
<g clip-path="url(#clip0_6_1172)">
<mask id="mask0_6_1172" style="mask-type:luminance" maskUnits="userSpaceOnUse" x="0" y="0" width="24" height="24">
<path d="M24 0H0V24H24V0Z" fill="white"/>
</mask>
<g mask="url(#mask0_6_1172)">
<mask id="mask1_6_1172" style="mask-type:alpha" maskUnits="userSpaceOnUse" x="0" y="0" width="24" height="24">
<path d="M24 0H0V24H24V0Z" fill="#D9D9D9"/>
</mask>
<g mask="url(#mask1_6_1172)">
<path d="M11.1002 14.9999H12.9002C13.0502 14.9999 13.1794 14.9374 13.2877 14.8124C13.3961 14.6874 13.4336 14.5499 13.4002 14.3999L12.9252 11.7749C13.2586 11.6082 13.5211 11.3666 13.7127 11.0499C13.9044 10.7332 14.0002 10.3832 14.0002 9.9999C14.0002 9.4499 13.8044 8.97907 13.4127 8.5874C13.0211 8.19574 12.5502 7.9999 12.0002 7.9999C11.4502 7.9999 10.9794 8.19574 10.5877 8.5874C10.1961 8.97907 10.0002 9.4499 10.0002 9.9999C10.0002 10.3832 10.0961 10.7332 10.2877 11.0499C10.4794 11.3666 10.7419 11.6082 11.0752 11.7749L10.6002 14.3999C10.5669 14.5499 10.6044 14.6874 10.7127 14.8124C10.8211 14.9374 10.9502 14.9999 11.1002 14.9999ZM11.6752 21.8749C11.5752 21.8582 11.4752 21.8332 11.3752 21.7999C9.12524 21.0499 7.33358 19.6624 6.00024 17.6374C4.66691 15.6124 4.00024 13.4332 4.00024 11.0999V6.3749C4.00024 5.95824 4.12108 5.58324 4.36274 5.2499C4.60441 4.91657 4.91691 4.6749 5.30024 4.5249L11.3002 2.2749C11.5336 2.19157 11.7669 2.1499 12.0002 2.1499C12.2336 2.1499 12.4669 2.19157 12.7002 2.2749L18.7002 4.5249C19.0836 4.6749 19.3961 4.91657 19.6377 5.2499C19.8794 5.58324 20.0002 5.95824 20.0002 6.3749V11.0999C20.0002 13.4332 19.3336 15.6124 18.0002 17.6374C16.6669 19.6624 14.8752 21.0499 12.6252 21.7999C12.5252 21.8332 12.4252 21.8582 12.3252 21.8749C12.2252 21.8916 12.1169 21.8999 12.0002 21.8999C11.8836 21.8999 11.7752 21.8916 11.6752 21.8749Z" fill="#B2BCD6"/>
</g>
</g>
</g>
<defs>
<clipPath id="clip0_6_1172">
<rect width="24" height="24" fill="white"/>
</clipPath>
</defs>
</svg>
