<svg width="24" height="24" viewBox="0 0 24 24" fill="none" xmlns="http://www.w3.org/2000/svg">
<g clip-path="url(#clip0_6_1162)">
<mask id="mask0_6_1162" style="mask-type:luminance" maskUnits="userSpaceOnUse" x="0" y="0" width="24" height="24">
<path d="M24 0H0V24H24V0Z" fill="white"/>
</mask>
<g mask="url(#mask0_6_1162)">
<mask id="mask1_6_1162" style="mask-type:alpha" maskUnits="userSpaceOnUse" x="0" y="0" width="24" height="24">
<path d="M24 0H0V24H24V0Z" fill="#D9D9D9"/>
</mask>
<g mask="url(#mask1_6_1162)">
<path d="M11.1003 14.9999H12.9003C13.0503 14.9999 13.1794 14.9374 13.2878 14.8124C13.3961 14.6874 13.4336 14.5499 13.4003 14.3999L12.9253 11.7749C13.2586 11.6082 13.5211 11.3665 13.7128 11.0499C13.9044 10.7332 14.0003 10.3832 14.0003 9.9999C14.0003 9.4499 13.8044 8.97907 13.4128 8.5874C13.0211 8.19574 12.5503 7.9999 12.0003 7.9999C11.4503 7.9999 10.9794 8.19574 10.5878 8.5874C10.1961 8.97907 10.0003 9.4499 10.0003 9.9999C10.0003 10.3832 10.0961 10.7332 10.2878 11.0499C10.4794 11.3665 10.7419 11.6082 11.0753 11.7749L10.6003 14.3999C10.5669 14.5499 10.6044 14.6874 10.7128 14.8124C10.8211 14.9374 10.9503 14.9999 11.1003 14.9999ZM11.6753 21.8749C11.5753 21.8582 11.4753 21.8332 11.3753 21.7999C9.12524 21.0499 7.33358 19.6624 6.00024 17.6374C4.66691 15.6124 4.00024 13.4332 4.00024 11.0999V6.3749C4.00024 5.95824 4.12108 5.58324 4.36274 5.2499C4.60441 4.91657 4.91691 4.6749 5.30024 4.5249L11.3003 2.2749C11.5336 2.19157 11.7669 2.1499 12.0003 2.1499C12.2336 2.1499 12.4669 2.19157 12.7003 2.2749L18.7003 4.5249C19.0836 4.6749 19.3961 4.91657 19.6378 5.2499C19.8794 5.58324 20.0003 5.95824 20.0003 6.3749V11.0999C20.0003 13.4332 19.3336 15.6124 18.0003 17.6374C16.6669 19.6624 14.8753 21.0499 12.6253 21.7999C12.5253 21.8332 12.4253 21.8582 12.3253 21.8749C12.2253 21.8915 12.1169 21.8999 12.0003 21.8999C11.8836 21.8999 11.7753 21.8915 11.6753 21.8749Z" fill="white"/>
</g>
</g>
</g>
<defs>
<clipPath id="clip0_6_1162">
<rect width="24" height="24" fill="white"/>
</clipPath>
</defs>
</svg>
