<svg width="40" height="40" viewBox="0 0 40 40" fill="none" xmlns="http://www.w3.org/2000/svg">
<mask id="mask0_437_1212" style="mask-type:alpha" maskUnits="userSpaceOnUse" x="0" y="0" width="40" height="40">
<rect width="40" height="40" fill="#D9D9D9"/>
</mask>
<g mask="url(#mask0_437_1212)">
<path d="M18.5006 25H21.5006C21.7506 25 21.9658 24.8958 22.1464 24.6875C22.327 24.4791 22.3895 24.25 22.3339 24L21.5422 19.625C22.0978 19.3472 22.5353 18.9444 22.8547 18.4166C23.1742 17.8889 23.3339 17.3055 23.3339 16.6666C23.3339 15.75 23.0075 14.9653 22.3547 14.3125C21.702 13.6597 20.9172 13.3333 20.0006 13.3333C19.0839 13.3333 18.2992 13.6597 17.6464 14.3125C16.9936 14.9653 16.6672 15.75 16.6672 16.6666C16.6672 17.3055 16.827 17.8889 17.1464 18.4166C17.4658 18.9444 17.9033 19.3472 18.4589 19.625L17.6672 24C17.6117 24.25 17.6742 24.4791 17.8547 24.6875C18.0353 24.8958 18.2506 25 18.5006 25ZM19.4589 36.4583C19.2922 36.4305 19.1256 36.3889 18.9589 36.3333C15.2089 35.0833 12.2228 32.7708 10.0006 29.3958C7.77835 26.0208 6.66724 22.3889 6.66724 18.5V10.625C6.66724 9.93054 6.86863 9.30554 7.2714 8.74998C7.67418 8.19442 8.19501 7.79165 8.8339 7.54165L18.8339 3.79165C19.2228 3.65276 19.6117 3.58331 20.0006 3.58331C20.3895 3.58331 20.7783 3.65276 21.1672 3.79165L31.1672 7.54165C31.8061 7.79165 32.327 8.19442 32.7297 8.74998C33.1325 9.30554 33.3339 9.93054 33.3339 10.625V18.5C33.3339 22.3889 32.2228 26.0208 30.0006 29.3958C27.7783 32.7708 24.7922 35.0833 21.0422 36.3333C20.8756 36.3889 20.7089 36.4305 20.5422 36.4583C20.3756 36.4861 20.195 36.5 20.0006 36.5C19.8061 36.5 19.6256 36.4861 19.4589 36.4583Z" fill="#F96278"/>
</g>
</svg>
