<svg width="24" height="24" viewBox="0 0 24 24" fill="none" xmlns="http://www.w3.org/2000/svg">
<path d="M22 12C22 6.47715 17.5228 2 12 2C6.47715 2 2 6.47715 2 12C2 17.5228 6.47715 22 12 22C17.5228 22 22 17.5228 22 12Z" fill="#B2BCD6"/>
<path d="M9.33998 16.2599C7.13998 16.2599 5.59998 14.6599 5.59998 12.3899C5.59998 10.1099 7.13998 8.50994 9.33998 8.51994C10.38 8.51994 11.31 8.95994 11.98 9.64994L11.01 10.7199C10.66 10.1999 10.01 9.83994 9.32998 9.83994C7.96998 9.82994 7.11998 10.8099 7.11998 12.3899C7.11998 13.9599 7.96998 14.9399 9.32998 14.9399C10.13 14.9399 10.65 14.5199 10.94 14.1199L11.98 15.1299C11.31 15.8199 10.5 16.2799 9.33998 16.2599ZM15.9628 12.3999C16.6528 12.3999 17.1328 11.8799 17.1328 11.1499C17.1328 10.4199 16.6528 9.89994 15.9628 9.89994H14.4928V12.3999H15.9628ZM12.9728 16.1799V8.59994H16.0128C17.5628 8.59994 18.6528 9.64994 18.6528 11.1499C18.6528 12.6499 17.5628 13.6999 16.0128 13.6999H14.4928V16.1799H12.9728Z" fill="#F5F6FA"/>
</svg>
