<svg width="24" height="24" viewBox="0 0 24 24" fill="none" xmlns="http://www.w3.org/2000/svg">
<path d="M12 2C17.5228 2 22 6.47715 22 12C22 17.5228 17.5228 22 12 22C6.47715 22 2 17.5228 2 12C2 6.47715 6.47715 2 12 2ZM9.33984 8.51953C7.14 8.5096 5.59972 10.1098 5.59961 12.3896C5.59961 14.6596 7.13991 16.2597 9.33984 16.2598C10.4999 16.2798 11.3105 15.8199 11.9805 15.1299L10.9404 14.1201C10.6504 14.5201 10.13 14.9394 9.33008 14.9395C7.97008 14.9395 7.12012 13.9596 7.12012 12.3896C7.12021 10.8098 7.97015 9.82984 9.33008 9.83984C10.01 9.83988 10.6597 10.1999 11.0098 10.7197L11.9805 9.65039C11.3105 8.96039 10.3799 8.51953 9.33984 8.51953ZM12.9727 8.59961V16.1797H14.4932V13.7002H16.0127C17.5625 13.7002 18.6521 12.6501 18.6523 11.1504C18.6523 9.65043 17.5627 8.59961 16.0127 8.59961H12.9727ZM15.9629 9.90039C16.6528 9.90044 17.1328 10.4204 17.1328 11.1504C17.1326 11.8801 16.6527 12.4003 15.9629 12.4004H14.4932V9.90039H15.9629Z" fill="white"/>
</svg>
