<svg width="32" height="32" viewBox="0 0 32 32" fill="none" xmlns="http://www.w3.org/2000/svg">
<mask id="mask0_6_414" style="mask-type:alpha" maskUnits="userSpaceOnUse" x="0" y="0" width="32" height="32">
<rect width="32" height="32" fill="#D9D9D9"/>
</mask>
<g mask="url(#mask0_6_414)">
<path d="M6.95225 5.71418V12.7752V12.7466V23.9988V5.71418ZM7.30395 25.713C6.72665 25.713 6.23801 25.513 5.83803 25.113C5.43806 24.7131 5.23807 24.2244 5.23807 23.6471V6.06588C5.23807 5.48858 5.43806 4.99994 5.83803 4.59996C6.23801 4.19999 6.72665 4 7.30395 4H15.5255C15.8041 4 16.0697 4.05352 16.3223 4.16056C16.5748 4.26741 16.7949 4.41464 16.9825 4.60225L21.7777 9.3974C21.9653 9.585 22.1125 9.80509 22.2194 10.0576C22.3264 10.3102 22.3799 10.5758 22.3799 10.8545V12.4018C22.3799 12.6458 22.2977 12.8466 22.1334 13.0043C21.969 13.1622 21.7654 13.2412 21.5225 13.2412C21.2795 13.2412 21.076 13.1591 20.912 12.9949C20.7478 12.8305 20.6657 12.6269 20.6657 12.3841V10.8567H16.5514C16.26 10.8567 16.0158 10.7582 15.8189 10.561C15.6217 10.3639 15.5232 10.1196 15.5232 9.82823V5.71418H7.30395C7.21595 5.71418 7.13538 5.75085 7.06225 5.82418C6.98892 5.89732 6.95225 5.97788 6.95225 6.06588V23.6471C6.95225 23.7351 6.98892 23.8157 7.06225 23.8888C7.13538 23.9622 7.21595 23.9988 7.30395 23.9988H13.4244C13.6673 23.9988 13.8708 24.081 14.035 24.2454C14.1994 24.4098 14.2815 24.6134 14.2815 24.8562C14.2815 25.0992 14.1994 25.3027 14.035 25.4667C13.8708 25.6309 13.6673 25.713 13.4244 25.713H7.30395ZM22.2491 22.1518C22.8344 21.565 23.127 20.8466 23.127 19.9968C23.127 19.1471 22.8337 18.4296 22.2471 17.8443C21.6602 17.259 20.9419 16.9664 20.0921 16.9664C19.2424 16.9664 18.5249 17.2597 17.9396 17.8463C17.3543 18.4332 17.0617 19.1515 17.0617 20.0013C17.0617 20.851 17.355 21.5685 17.9416 22.1538C18.5284 22.7391 19.2468 23.0317 20.0966 23.0317C20.9463 23.0317 21.6638 22.7384 22.2491 22.1518ZM25.9234 26.6667C25.6796 26.6667 25.4786 26.5876 25.3203 26.4295L22.793 23.8911C22.4077 24.1724 21.9855 24.3853 21.5263 24.5297C21.0669 24.6738 20.5895 24.7459 20.0943 24.7459C18.7757 24.7459 17.655 24.2844 16.732 23.3614C15.809 22.4384 15.3475 21.3176 15.3475 19.9991C15.3475 18.6805 15.809 17.5597 16.732 16.6367C17.655 15.7137 18.7757 15.2522 20.0943 15.2522C21.4129 15.2522 22.5337 15.7137 23.4567 16.6367C24.3797 17.5597 24.8412 18.6805 24.8412 19.9991C24.8412 20.4943 24.7691 20.9716 24.6249 21.431C24.4806 21.8902 24.2677 22.3124 23.9864 22.6978L26.5248 25.225C26.6829 25.3827 26.7619 25.5833 26.7619 25.8267C26.7619 26.0703 26.6831 26.2713 26.5254 26.4295C26.3677 26.5876 26.167 26.6667 25.9234 26.6667Z" fill="#999999"/>
</g>
</svg>
