<svg width="40" height="40" viewBox="0 0 40 40" fill="none" xmlns="http://www.w3.org/2000/svg">
<mask id="mask0_437_1201" style="mask-type:alpha" maskUnits="userSpaceOnUse" x="0" y="0" width="40" height="40">
<rect width="40" height="40" fill="white"/>
</mask>
<g mask="url(#mask0_437_1201)">
<path d="M26.6666 20.4167H13.3333C12.8611 20.4167 12.4652 20.2569 12.1458 19.9375C11.8263 19.6181 11.6666 19.2222 11.6666 18.75C11.6666 18.2778 11.8263 17.8819 12.1458 17.5625C12.4652 17.2431 12.8611 17.0833 13.3333 17.0833H26.6666C27.1388 17.0833 27.5347 17.2431 27.8541 17.5625C28.1736 17.8819 28.3333 18.2778 28.3333 18.75C28.3333 19.2222 28.1736 19.6181 27.8541 19.9375C27.5347 20.2569 27.1388 20.4167 26.6666 20.4167Z" fill="#3A64D3"/>
<path d="M26.6666 14.5833H13.3333C12.8611 14.5833 12.4652 14.4236 12.1458 14.1042C11.8263 13.7847 11.6666 13.3889 11.6666 12.9167C11.6666 12.4444 11.8263 12.0486 12.1458 11.7292C12.4652 11.4097 12.8611 11.25 13.3333 11.25H26.6666C27.1388 11.25 27.5347 11.4097 27.8541 11.7292C28.1736 12.0486 28.3333 12.4444 28.3333 12.9167C28.3333 13.3889 28.1736 13.7847 27.8541 14.1042C27.5347 14.4236 27.1388 14.5833 26.6666 14.5833Z" fill="#3A64D3"/>
<path d="M8.33333 35C7.41667 35 6.63194 34.6736 5.97917 34.0208C5.32639 33.3681 5 32.5833 5 31.6667V8.33333C5 7.41667 5.32639 6.63194 5.97917 5.97917C6.63194 5.32639 7.41667 5 8.33333 5H31.6667C32.5833 5 33.3681 5.32639 34.0208 5.97917C34.6736 6.63194 35 7.41667 35 8.33333V31.6667C35 32.5833 34.6736 33.3681 34.0208 34.0208C33.3681 34.6736 32.5833 35 31.6667 35H8.33333ZM20 26.6667C20.8889 26.6667 21.7083 26.4375 22.4583 25.9792C23.2083 25.5208 23.8194 24.9167 24.2917 24.1667C24.4583 23.9167 24.6667 23.7153 24.9167 23.5625C25.1667 23.4097 25.4444 23.3333 25.75 23.3333H31.6667V8.33333H8.33333V23.3333H14.25C14.5556 23.3333 14.8333 23.4097 15.0833 23.5625C15.3333 23.7153 15.5417 23.9167 15.7083 24.1667C16.1806 24.9167 16.7917 25.5208 17.5417 25.9792C18.2917 26.4375 19.1111 26.6667 20 26.6667Z" fill="#FEC343"/>
</g>
</svg>
