<svg width="24" height="24" viewBox="0 0 24 24" fill="none" xmlns="http://www.w3.org/2000/svg">
<g clip-path="url(#clip0_6_984)">
<mask id="mask0_6_984" style="mask-type:luminance" maskUnits="userSpaceOnUse" x="0" y="0" width="24" height="24">
<path d="M24 0H0V24H24V0Z" fill="white"/>
</mask>
<g mask="url(#mask0_6_984)">
<mask id="mask1_6_984" style="mask-type:alpha" maskUnits="userSpaceOnUse" x="0" y="0" width="24" height="24">
<path d="M24 0H0V24H24V0Z" fill="#D9D9D9"/>
</mask>
<g mask="url(#mask1_6_984)">
<path d="M8 12.25H16C16.2833 12.25 16.5208 12.1542 16.7125 11.9625C16.9042 11.7708 17 11.5333 17 11.25C17 10.9667 16.9042 10.7292 16.7125 10.5375C16.5208 10.3458 16.2833 10.25 16 10.25H8C7.71667 10.25 7.47917 10.3458 7.2875 10.5375C7.09583 10.7292 7 10.9667 7 11.25C7 11.5333 7.09583 11.7708 7.2875 11.9625C7.47917 12.1542 7.71667 12.25 8 12.25ZM8 8.75H16C16.2833 8.75 16.5208 8.65417 16.7125 8.4625C16.9042 8.27083 17 8.03333 17 7.75C17 7.46667 16.9042 7.22917 16.7125 7.0375C16.5208 6.84583 16.2833 6.75 16 6.75H8C7.71667 6.75 7.47917 6.84583 7.2875 7.0375C7.09583 7.22917 7 7.46667 7 7.75C7 8.03333 7.09583 8.27083 7.2875 8.4625C7.47917 8.65417 7.71667 8.75 8 8.75ZM5 21C4.45 21 3.97917 20.8042 3.5875 20.4125C3.19583 20.0208 3 19.55 3 19V5C3 4.45 3.19583 3.97917 3.5875 3.5875C3.97917 3.19583 4.45 3 5 3H19C19.55 3 20.0208 3.19583 20.4125 3.5875C20.8042 3.97917 21 4.45 21 5V19C21 19.55 20.8042 20.0208 20.4125 20.4125C20.0208 20.8042 19.55 21 19 21H5ZM12 16C12.5333 16 13.025 15.8625 13.475 15.5875C13.925 15.3125 14.2917 14.95 14.575 14.5C14.675 14.35 14.8 14.2292 14.95 14.1375C15.1 14.0458 15.2667 14 15.45 14H19V5H5V14H8.55C8.73333 14 8.9 14.0458 9.05 14.1375C9.2 14.2292 9.325 14.35 9.425 14.5C9.70833 14.95 10.075 15.3125 10.525 15.5875C10.975 15.8625 11.4667 16 12 16Z" fill="#B2BCD6"/>
</g>
</g>
</g>
<defs>
<clipPath id="clip0_6_984">
<rect width="24" height="24" fill="white"/>
</clipPath>
</defs>
</svg>
