<svg width="24" height="24" viewBox="0 0 24 24" fill="none" xmlns="http://www.w3.org/2000/svg">
<g clip-path="url(#clip0_6_1048)">
<mask id="mask0_6_1048" style="mask-type:luminance" maskUnits="userSpaceOnUse" x="0" y="0" width="24" height="24">
<path d="M24 0H0V24H24V0Z" fill="white"/>
</mask>
<g mask="url(#mask0_6_1048)">
<mask id="mask1_6_1048" style="mask-type:alpha" maskUnits="userSpaceOnUse" x="0" y="0" width="24" height="24">
<path d="M24 0H0V24H24V0Z" fill="#D9D9D9"/>
</mask>
<g mask="url(#mask1_6_1048)">
<path d="M13.0248 3.2501C13.0248 2.91676 13.1498 2.6501 13.3998 2.4501C13.6498 2.2501 13.9332 2.18343 14.2498 2.2501C16.1665 2.68343 17.804 3.5876 19.1623 4.9626C20.5207 6.3376 21.3998 7.98343 21.7998 9.9001C21.8665 10.1834 21.804 10.4376 21.6123 10.6626C21.4207 10.8876 21.1582 11.0001 20.8248 11.0001H15.0498C14.9832 11.0001 14.9248 10.9834 14.8748 10.9501C14.8248 10.9168 14.7832 10.8668 14.7498 10.8001C14.5998 10.4501 14.3915 10.1376 14.1248 9.8626C13.8582 9.5876 13.5582 9.3751 13.2248 9.2251C13.1582 9.19176 13.1081 9.15426 13.0747 9.1126C13.0414 9.07093 13.0248 9.01676 13.0248 8.9501V3.2501ZM9.72478 21.7251C7.49144 21.2084 5.64978 20.0501 4.19978 18.2501C2.74978 16.4501 2.02478 14.3668 2.02478 12.0001C2.02478 9.63343 2.74978 7.55426 4.19978 5.7626C5.64978 3.97093 7.49144 2.80843 9.72478 2.2751C10.0582 2.19176 10.3582 2.2626 10.6248 2.4876C10.8915 2.7126 11.0248 3.0001 11.0248 3.3501V9.0001C11.0248 9.01676 10.9748 9.08343 10.8748 9.2001C10.3082 9.43343 9.85811 9.80427 9.52478 10.3126C9.19144 10.8209 9.02478 11.3834 9.02478 12.0001C9.02478 12.6168 9.19144 13.1709 9.52478 13.6626C9.85811 14.1543 10.3082 14.5168 10.8748 14.7501C10.9082 14.7668 10.9582 14.8334 11.0248 14.9501V20.6501C11.0248 21.0001 10.8915 21.2876 10.6248 21.5126C10.3582 21.7376 10.0582 21.8084 9.72478 21.7251ZM14.1248 21.7751C13.8415 21.8418 13.5873 21.7793 13.3623 21.5876C13.1373 21.3959 13.0248 21.1501 13.0248 20.8501V15.0251C13.0248 14.9584 13.0414 14.9001 13.0747 14.8501C13.1081 14.8001 13.1582 14.7584 13.2248 14.7251C13.5582 14.5751 13.8582 14.3668 14.1248 14.1001C14.3915 13.8334 14.5998 13.5334 14.7498 13.2001C14.7665 13.1668 14.8582 13.1001 15.0248 13.0001H20.8248C21.1248 13.0001 21.3748 13.1251 21.5748 13.3751C21.7748 13.6251 21.8414 13.9084 21.7747 14.2251C21.3581 16.1418 20.4582 17.7793 19.0748 19.1376C17.6915 20.4959 16.0415 21.3751 14.1248 21.7751Z" fill="#B2BCD6"/>
</g>
</g>
</g>
<defs>
<clipPath id="clip0_6_1048">
<rect width="24" height="24" fill="white"/>
</clipPath>
</defs>
</svg>
