<svg width="32" height="32" viewBox="0 0 32 32" fill="none" xmlns="http://www.w3.org/2000/svg">
<mask id="mask0_6_310" style="mask-type:alpha" maskUnits="userSpaceOnUse" x="0" y="0" width="32" height="32">
<rect width="32" height="32" fill="#D9D9D9"/>
</mask>
<g mask="url(#mask0_6_310)">
<path d="M15.5513 20.4717C15.4129 20.4206 15.2812 20.3326 15.1563 20.2077L11.0103 16.0617C10.8121 15.8632 10.7142 15.6311 10.7167 15.3653C10.7193 15.0996 10.8172 14.8632 11.0103 14.6563C11.2172 14.4497 11.4548 14.3429 11.723 14.336C11.9914 14.3291 12.2291 14.4291 12.436 14.636L15 17.2V7C15 6.71622 15.0958 6.47867 15.2873 6.28733C15.4787 6.09578 15.7162 6 16 6C16.2838 6 16.5213 6.09578 16.7127 6.28733C16.9042 6.47867 17 6.71622 17 7V17.2L19.564 14.636C19.7624 14.4378 19.9979 14.3399 20.2703 14.3423C20.543 14.345 20.7828 14.4497 20.9897 14.6563C21.1828 14.8632 21.2828 15.0974 21.2897 15.359C21.2966 15.6206 21.1966 15.8548 20.9897 16.0617L16.8437 20.2077C16.7188 20.3326 16.5871 20.4206 16.4487 20.4717C16.3102 20.523 16.1607 20.5487 16 20.5487C15.8393 20.5487 15.6898 20.523 15.5513 20.4717ZM8.41033 26C7.73678 26 7.16667 25.7667 6.7 25.3C6.23333 24.8333 6 24.2632 6 23.5897V20.9743C6 20.6906 6.09578 20.453 6.28733 20.2617C6.47867 20.0701 6.71622 19.9743 7 19.9743C7.28378 19.9743 7.52133 20.0701 7.71267 20.2617C7.90422 20.453 8 20.6906 8 20.9743V23.5897C8 23.6923 8.04278 23.7863 8.12833 23.8717C8.21367 23.9572 8.30767 24 8.41033 24H23.5897C23.6923 24 23.7863 23.9572 23.8717 23.8717C23.9572 23.7863 24 23.6923 24 23.5897V20.9743C24 20.6906 24.0958 20.453 24.2873 20.2617C24.4787 20.0701 24.7162 19.9743 25 19.9743C25.2838 19.9743 25.5213 20.0701 25.7127 20.2617C25.9042 20.453 26 20.6906 26 20.9743V23.5897C26 24.2632 25.7667 24.8333 25.3 25.3C24.8333 25.7667 24.2632 26 23.5897 26H8.41033Z" fill="#414141"/>
</g>
</svg>
