<svg width="32" height="32" viewBox="0 0 32 32" fill="none" xmlns="http://www.w3.org/2000/svg">
<path d="M27.7058 18.4994L28.5181 19.0826L27.7058 18.4994ZM27.7058 13.5005L26.8935 14.0837V14.0837L27.7058 13.5005ZM28.8841 16H27.8841H28.8841ZM4.29425 18.4994L5.1066 17.9163V17.9163L4.29425 18.4994ZM4.29425 13.5005L3.48191 12.9173L4.29425 13.5005ZM3.11591 16H2.11591H3.11591ZM4.29425 18.4994L3.48191 19.0826C4.63951 20.6951 6.3622 22.814 8.469 24.539C10.5644 26.2547 13.1454 27.6666 16 27.6666V26.6666V25.6666C13.8057 25.6666 11.6655 24.5714 9.73603 22.9916C7.818 21.4211 6.21229 19.4564 5.1066 17.9163L4.29425 18.4994ZM16 26.6666V27.6666C18.8546 27.6666 21.4357 26.2547 23.5311 24.539C25.6379 22.814 27.3605 20.6951 28.5181 19.0826L27.7058 18.4994L26.8935 17.9163C25.7878 19.4564 24.1821 21.4211 22.264 22.9916C20.3346 24.5714 18.1944 25.6666 16 25.6666V26.6666ZM27.7058 13.5005L28.5181 12.9173C27.3605 11.3048 25.6379 9.18593 23.5311 7.46093C21.4357 5.7453 18.8546 4.33331 16 4.33331V5.33331V6.33331C18.1944 6.33331 20.3346 7.42859 22.264 9.0084C24.1821 10.5788 25.7878 12.5435 26.8935 14.0837L27.7058 13.5005ZM16 5.33331V4.33331C13.1454 4.33331 10.5644 5.7453 8.469 7.46093C6.3622 9.18593 4.63951 11.3048 3.48191 12.9173L4.29425 13.5005L5.10659 14.0837C6.21229 12.5435 7.818 10.5788 9.73602 9.0084C11.6655 7.42859 13.8057 6.33331 16 6.33331V5.33331ZM27.7058 18.4994L28.5181 19.0826C29.2573 18.053 29.8841 17.2381 29.8841 16H28.8841H27.8841C27.8841 16.478 27.7254 16.7574 26.8935 17.9163L27.7058 18.4994ZM27.7058 13.5005L26.8935 14.0837C27.7254 15.2426 27.8841 15.5219 27.8841 16H28.8841H29.8841C29.8841 14.7618 29.2573 13.947 28.5181 12.9173L27.7058 13.5005ZM4.29425 18.4994L5.1066 17.9163C4.27464 16.7574 4.11591 16.478 4.11591 16H3.11591H2.11591C2.11591 17.2381 2.74273 18.053 3.48191 19.0826L4.29425 18.4994ZM4.29425 13.5005L3.48191 12.9173C2.74273 13.947 2.11591 14.7618 2.11591 16H3.11591H4.11591C4.11591 15.5219 4.27464 15.2426 5.10659 14.0837L4.29425 13.5005ZM12 16H11C11 18.7614 13.2386 21 16 21V20V19C14.3432 19 13 17.6568 13 16H12ZM16 20V21C18.7615 21 21 18.7614 21 16H20H19C19 17.6568 17.6569 19 16 19V20ZM20 16H21C21 13.2386 18.7615 11 16 11V12V13C17.6569 13 19 14.3431 19 16H20ZM16 12V11C13.2386 11 11 13.2386 11 16H12H13C13 14.3431 14.3432 13 16 13V12Z" fill="#414141"/>
</svg>
