<svg width="32" height="32" viewBox="0 0 32 32" fill="none" xmlns="http://www.w3.org/2000/svg">
<path d="M16 19C15.4477 19 15 19.4477 15 20C15 20.5523 15.4477 21 16 21V20V19ZM21 16C21 15.4477 20.5523 15 20 15C19.4477 15 19 15.4477 19 16H20H21ZM4.29424 13.5005L3.4819 12.9173V12.9173L4.29424 13.5005ZM4.29395 18.499L5.1063 17.9159L5.1063 17.9159L4.29395 18.499ZM7.71732 22.5237L8.46791 21.863L8.44257 21.8342L8.41509 21.8074L7.71732 22.5237ZM24.1347 9.33331L23.4432 10.0556L23.4716 10.0828L23.502 10.1077L24.1347 9.33331ZM3.11591 15.9999L2.11591 15.9999L3.11591 15.9999ZM27.7058 18.4994L28.5181 19.0826V19.0826L27.7058 18.4994ZM27.7057 13.5004L26.8934 14.0836L26.8934 14.0836L27.7057 13.5004ZM27.1938 11.1877C26.8443 10.76 26.2143 10.6967 25.7867 11.0462C25.3591 11.3957 25.2957 12.0256 25.6452 12.4533L26.4195 11.8205L27.1938 11.1877ZM10.5834 23.6429C10.1348 23.3207 9.51001 23.4231 9.18782 23.8717C8.86563 24.3203 8.96808 24.9451 9.41664 25.2673L10 24.4551L10.5834 23.6429ZM28.8841 16L27.8841 16L28.8841 16ZM2.04199 25.8858C1.61073 26.2308 1.54081 26.8601 1.88582 27.2913C2.23083 27.7226 2.86012 27.7925 3.29138 27.4475L2.66669 26.6666L2.04199 25.8858ZM29.958 6.11418C30.3893 5.76917 30.4592 5.13988 30.1142 4.70862C29.7692 4.27736 29.1399 4.20743 28.7087 4.55244L29.3334 5.33331L29.958 6.11418ZM24.233 9.4136L24.8577 10.1945V10.1945L24.233 9.4136ZM7.77022 22.5838L8.39491 23.3647V23.3647L7.77022 22.5838ZM16 12V11C13.2386 11 11 13.2386 11 16H12H13C13 14.3431 14.3432 13 16 13V12ZM12 16H11C11 17.1744 11.4062 18.2567 12.0849 19.1102L12.8676 18.4877L13.6502 17.8653C13.2428 17.353 13 16.7062 13 16H12ZM19.1229 13.5002L19.9032 12.8748C18.9885 11.7336 17.5796 11 16 11V12V13C16.947 13 17.7912 13.4376 18.3426 14.1256L19.1229 13.5002ZM16 20V21C18.7614 21 21 18.7614 21 16H20H19C19 17.6568 17.6569 19 16 19V20ZM16 5.33331V4.33331C13.1454 4.33331 10.5643 5.7453 8.46899 7.46093C6.36219 9.18593 4.6395 11.3048 3.4819 12.9173L4.29424 13.5005L5.10659 14.0837C6.21228 12.5435 7.81799 10.5788 9.73602 9.0084C11.6655 7.42859 13.8057 6.33331 16 6.33331V5.33331ZM4.29395 18.499L3.4816 19.0822C4.36408 20.3115 5.57001 21.828 7.01954 23.24L7.71732 22.5237L8.41509 21.8074C7.07473 20.5017 5.9444 19.0833 5.1063 17.9159L4.29395 18.499ZM24.1347 9.33331L24.8263 8.611C22.5164 6.39942 19.4544 4.33331 16 4.33331V5.33331V6.33331C18.6705 6.33331 21.251 7.95681 23.4432 10.0556L24.1347 9.33331ZM4.29424 13.5005L3.4819 12.9173C2.74273 13.947 2.11592 14.7618 2.11591 15.9999L3.11591 15.9999L4.11591 16C4.11591 15.5219 4.27465 15.2425 5.10659 14.0837L4.29424 13.5005ZM4.29395 18.499L5.1063 17.9159C4.27458 16.7573 4.1159 16.478 4.11591 16L3.11591 15.9999L2.11591 15.9999C2.1159 17.2381 2.74259 18.0528 3.4816 19.0822L4.29395 18.499ZM16 26.6666V27.6666C18.8546 27.6666 21.4357 26.2547 23.531 24.539C25.6378 22.814 27.3605 20.6951 28.5181 19.0826L27.7058 18.4994L26.8935 17.9163C25.7878 19.4564 24.182 21.4211 22.264 22.9916C20.3346 24.5714 18.1944 25.6666 16 25.6666V26.6666ZM27.7057 13.5004L28.5181 12.9172C28.1345 12.3829 27.6909 11.7959 27.1938 11.1877L26.4195 11.8205L25.6452 12.4533C26.1125 13.0251 26.5308 13.5786 26.8934 14.0836L27.7057 13.5004ZM10 24.4551L9.41664 25.2673C11.316 26.6316 13.5568 27.6666 16 27.6666V26.6666V25.6666C14.1269 25.6666 12.2909 24.8694 10.5834 23.6429L10 24.4551ZM27.7058 18.4994L28.5181 19.0826C29.2573 18.053 29.8841 17.2381 29.8841 16L28.8841 16L27.8841 16C27.8841 16.478 27.7254 16.7574 26.8935 17.9163L27.7058 18.4994ZM27.7057 13.5004L26.8934 14.0836C27.7254 15.2425 27.8841 15.5219 27.8841 16L28.8841 16L29.8841 16C29.8841 14.7618 29.2573 13.9469 28.5181 12.9172L27.7057 13.5004ZM24.233 9.4136L24.8577 10.1945L29.958 6.11418L29.3334 5.33331L28.7087 4.55244L23.6083 8.63273L24.233 9.4136ZM24.1347 9.33331L23.502 10.1077L23.6003 10.188L24.233 9.4136L24.8657 8.63921L24.7674 8.55892L24.1347 9.33331ZM2.66669 26.6666L3.29138 27.4475L8.39491 23.3647L7.77022 22.5838L7.14552 21.803L2.04199 25.8858L2.66669 26.6666ZM7.77022 22.5838L8.39491 23.3647L24.8577 10.1945L24.233 9.4136L23.6083 8.63273L7.14552 21.803L7.77022 22.5838ZM7.71732 22.5237L6.96673 23.1845L7.01963 23.2446L7.77022 22.5838L8.52081 21.9231L8.46791 21.863L7.71732 22.5237Z" fill="#414141"/>
</svg>
