<svg width="24" height="24" viewBox="0 0 24 24" fill="none" xmlns="http://www.w3.org/2000/svg">
<g clip-path="url(#clip0_6_1072)">
<mask id="mask0_6_1072" style="mask-type:luminance" maskUnits="userSpaceOnUse" x="0" y="0" width="24" height="24">
<path d="M24 0H0V24H24V0Z" fill="white"/>
</mask>
<g mask="url(#mask0_6_1072)">
<mask id="mask1_6_1072" style="mask-type:luminance" maskUnits="userSpaceOnUse" x="0" y="0" width="24" height="24">
<path d="M24 0H0V24H24V0Z" fill="white"/>
</mask>
<g mask="url(#mask1_6_1072)">
<mask id="mask2_6_1072" style="mask-type:alpha" maskUnits="userSpaceOnUse" x="0" y="0" width="24" height="24">
<path d="M24 0H0V24H24V0Z" fill="#D9D9D9"/>
</mask>
<g mask="url(#mask2_6_1072)">
<path d="M5.99977 21.5C5.03311 21.5 4.20811 21.1584 3.52477 20.475C2.84144 19.7917 2.49976 18.9667 2.49976 18C2.49976 17.0334 2.84144 16.2084 3.52477 15.525C4.20811 14.8417 5.03311 14.5 5.99977 14.5C6.96644 14.5 7.79143 14.8417 8.47476 15.525C9.1581 16.2084 9.49977 17.0334 9.49977 18C9.49977 18.3667 9.44561 18.7209 9.33727 19.0625C9.22894 19.4042 9.06643 19.725 8.84976 20.025V19.35C9.34976 19.5667 9.86646 19.7292 10.3998 19.8375C10.9331 19.9459 11.4665 20 11.9998 20C14.0498 20 15.8206 19.3334 17.3123 18C18.804 16.6667 19.6748 15.0084 19.9248 13.025C19.9581 12.7417 20.0748 12.5 20.2748 12.3C20.4748 12.1 20.7165 12 20.9998 12C21.2831 12 21.5206 12.1 21.7123 12.3C21.904 12.5 21.9831 12.7417 21.9498 13.025C21.6831 15.5584 20.6081 17.6875 18.7248 19.4125C16.8415 21.1375 14.5998 22 11.9998 22C11.2498 22 10.5165 21.9209 9.79978 21.7625C9.08312 21.6042 8.39144 21.3667 7.72477 21.05C7.45811 21.2 7.17894 21.3125 6.88727 21.3875C6.59561 21.4625 6.29977 21.5 5.99977 21.5ZM11.9998 15.5C11.0331 15.5 10.2081 15.1584 9.52477 14.475C8.84144 13.7917 8.49977 12.9667 8.49977 12C8.49977 11.0334 8.84144 10.2084 9.52477 9.525C10.2081 8.84167 11.0331 8.5 11.9998 8.5C12.9665 8.5 13.7915 8.84167 14.4748 9.525C15.1581 10.2084 15.4998 11.0334 15.4998 12C15.4998 12.9667 15.1581 13.7917 14.4748 14.475C13.7915 15.1584 12.9665 15.5 11.9998 15.5ZM11.9998 4C9.94976 4 8.17894 4.66667 6.68727 6C5.19561 7.33333 4.32476 8.99167 4.07476 10.975C4.04143 11.2584 3.92476 11.5 3.72476 11.7C3.52476 11.9 3.28309 12 2.99976 12C2.71643 12 2.47893 11.9 2.28726 11.7C2.09559 11.5 2.01643 11.2584 2.04976 10.975C2.31643 8.44167 3.39143 6.3125 5.27476 4.5875C7.1581 2.8625 9.39977 2 11.9998 2C12.7498 2 13.4831 2.07917 14.1998 2.2375C14.9165 2.39583 15.6081 2.63333 16.2748 2.95C16.5415 2.8 16.8206 2.6875 17.1123 2.6125C17.404 2.5375 17.6998 2.5 17.9998 2.5C18.9665 2.5 19.7915 2.84167 20.4748 3.525C21.1581 4.20833 21.4998 5.03333 21.4998 6C21.4998 6.96667 21.1581 7.79167 20.4748 8.475C19.7915 9.15833 18.9665 9.5 17.9998 9.5C17.0331 9.5 16.2081 9.15833 15.5248 8.475C14.8415 7.79167 14.4998 6.96667 14.4998 6C14.4998 5.63333 14.554 5.27917 14.6623 4.9375C14.7706 4.59583 14.9331 4.275 15.1498 3.975V4.65C14.6498 4.43333 14.1331 4.27083 13.5998 4.1625C13.0665 4.05417 12.5331 4 11.9998 4Z" fill="white"/>
</g>
</g>
</g>
</g>
<defs>
<clipPath id="clip0_6_1072">
<rect width="24" height="24" fill="white"/>
</clipPath>
</defs>
</svg>
