<svg width="20" height="20" viewBox="0 0 20 20" fill="none" xmlns="http://www.w3.org/2000/svg">
<mask id="mask0_628_5024" style="mask-type:alpha" maskUnits="userSpaceOnUse" x="0" y="0" width="20" height="20">
<rect width="20" height="20" fill="#D9D9D9"/>
</mask>
<g mask="url(#mask0_628_5024)">
<path d="M4.42345 17.0833C4.00248 17.0833 3.64616 16.9375 3.35449 16.6458C3.06283 16.3542 2.91699 15.9978 2.91699 15.5769L2.91699 4.42311C2.91699 4.00214 3.06283 3.64582 3.35449 3.35416C3.64616 3.06249 4.00248 2.91666 4.42345 2.91666L9.38345 2.91666C9.56067 2.91666 9.70915 2.97652 9.82887 3.09624C9.94845 3.21582 10.0082 3.3643 10.0082 3.54166C10.0082 3.71902 9.94845 3.86749 9.82887 3.98707C9.70915 4.1068 9.56067 4.16666 9.38345 4.16666H4.42345C4.35928 4.16666 4.30053 4.19339 4.2472 4.24686C4.19373 4.3002 4.16699 4.35895 4.16699 4.42311L4.16699 15.5769C4.16699 15.641 4.19373 15.6998 4.2472 15.7531C4.30053 15.8066 4.35928 15.8333 4.42345 15.8333H9.38345C9.56067 15.8333 9.70915 15.8932 9.82887 16.0129C9.94845 16.1325 10.0082 16.281 10.0082 16.4583C10.0082 16.6357 9.94845 16.7842 9.82887 16.9037C9.70915 17.0235 9.56067 17.0833 9.38345 17.0833H4.42345ZM14.6814 10.625H8.20553C8.02817 10.625 7.87963 10.5651 7.75991 10.4454C7.64033 10.3258 7.58053 10.1774 7.58053 9.99999C7.58053 9.82263 7.64033 9.67416 7.75991 9.55457C7.87963 9.43485 8.02817 9.37499 8.20553 9.37499H14.6814L13.0789 7.77249C12.9635 7.65707 12.9044 7.51631 12.9018 7.3502C12.8991 7.18409 12.9582 7.03638 13.0789 6.90707C13.1996 6.77777 13.346 6.71096 13.518 6.70666C13.69 6.70249 13.8406 6.76499 13.9699 6.89416L16.5485 9.4727C16.699 9.62339 16.7743 9.79916 16.7743 9.99999C16.7743 10.2008 16.699 10.3766 16.5485 10.5273L13.9699 13.1058C13.846 13.2297 13.6989 13.2908 13.5285 13.2892C13.358 13.2876 13.2082 13.2222 13.0789 13.0929C12.9582 12.9636 12.9 12.8151 12.9043 12.6475C12.9085 12.4797 12.971 12.3355 13.0918 12.2148L14.6814 10.625Z" fill="#999999"/>
</g>
</svg>
