<svg width="40" height="40" viewBox="0 0 40 40" fill="none" xmlns="http://www.w3.org/2000/svg">
<path d="M21.9833 10H11.3166C10.8833 10 10.4666 10.0167 10.0666 10.0667C5.58325 10.45 3.33325 13.1 3.33325 17.9833V24.65C3.33325 31.3167 5.99992 32.6333 11.3166 32.6333H11.9833C12.3499 32.6333 12.8333 32.8833 13.0499 33.1667L15.0499 35.8333C15.9333 37.0167 17.3666 37.0167 18.2499 35.8333L20.2499 33.1667C20.4999 32.8333 20.8999 32.6333 21.3166 32.6333H21.9833C26.8666 32.6333 29.5166 30.4 29.8999 25.9C29.9499 25.5 29.9666 25.0833 29.9666 24.65V17.9833C29.9666 12.6667 27.2999 10 21.9833 10ZM10.8333 23.3333C9.89992 23.3333 9.16659 22.5833 9.16659 21.6667C9.16659 20.75 9.91659 20 10.8333 20C11.7499 20 12.4999 20.75 12.4999 21.6667C12.4999 22.5833 11.7499 23.3333 10.8333 23.3333ZM16.6499 23.3333C15.7166 23.3333 14.9833 22.5833 14.9833 21.6667C14.9833 20.75 15.7333 20 16.6499 20C17.5666 20 18.3166 20.75 18.3166 21.6667C18.3166 22.5833 17.5833 23.3333 16.6499 23.3333ZM22.4833 23.3333C21.5499 23.3333 20.8166 22.5833 20.8166 21.6667C20.8166 20.75 21.5666 20 22.4833 20C23.3999 20 24.1499 20.75 24.1499 21.6667C24.1499 22.5833 23.3999 23.3333 22.4833 23.3333Z" fill="#FFB03A"/>
<path d="M36.6334 11.3167V17.9833C36.6334 21.3167 35.6001 23.5833 33.5334 24.8333C33.0334 25.1333 32.4501 24.7333 32.4501 24.15L32.4667 17.9833C32.4667 11.3167 28.6501 7.50001 21.9834 7.50001L11.8334 7.51668C11.2501 7.51668 10.8501 6.93334 11.1501 6.43334C12.4001 4.36668 14.6668 3.33334 17.9834 3.33334H28.6501C33.9668 3.33334 36.6334 6.00001 36.6334 11.3167Z" fill="#EABD7A"/>
</svg>
