<svg width="32" height="32" viewBox="0 0 32 32" fill="none" xmlns="http://www.w3.org/2000/svg">
<g clip-path="url(#clip0_6_302)">
<mask id="mask0_6_302" style="mask-type:alpha" maskUnits="userSpaceOnUse" x="0" y="0" width="32" height="32">
<rect width="32" height="32" fill="#D9D9D9"/>
</mask>
<g mask="url(#mask0_6_302)">
<path d="M7.07699 27.3334C6.40343 27.3334 5.83332 27.1 5.36666 26.6334C4.89999 26.1667 4.66666 25.5966 4.66666 24.923V7.07702C4.66666 6.40346 4.89999 5.83335 5.36666 5.36669C5.83332 4.90002 6.40343 4.66669 7.07699 4.66669H24.923C25.5965 4.66669 26.1667 4.90002 26.6333 5.36669C27.1 5.83335 27.3333 6.40346 27.3333 7.07702V24.923C27.3333 25.5966 27.1 26.1667 26.6333 26.6334C26.1667 27.1 25.5965 27.3334 24.923 27.3334H7.07699ZM7.07699 25.3334H24.923C25.0428 25.3334 25.1411 25.2949 25.218 25.218C25.2949 25.1411 25.3333 25.0428 25.3333 24.923V21.077H20.9487C20.3675 21.9215 19.6458 22.577 18.7833 23.0437C17.9209 23.5104 16.9931 23.7437 16 23.7437C15.0069 23.7437 14.0791 23.5104 13.2167 23.0437C12.3542 22.577 11.6324 21.9215 11.0513 21.077H6.66666V24.923C6.66666 25.0428 6.7051 25.1411 6.78199 25.218C6.85888 25.2949 6.95721 25.3334 7.07699 25.3334ZM18.3 21.0104C18.9889 20.5215 19.4667 19.877 19.7333 19.077H25.3333V7.07702C25.3333 6.95724 25.2949 6.85891 25.218 6.78202C25.1411 6.70513 25.0428 6.66669 24.923 6.66669H7.07699C6.95721 6.66669 6.85888 6.70513 6.78199 6.78202C6.7051 6.85891 6.66666 6.95724 6.66666 7.07702V19.077H12.2667C12.5333 19.877 13.0111 20.5215 13.7 21.0104C14.3889 21.4992 15.1555 21.7437 16 21.7437C16.8444 21.7437 17.6111 21.4992 18.3 21.0104ZM7.07699 25.3334H6.66666H25.3333H7.07699Z" fill="#3B69E3"/>
</g>
</g>
<defs>
<clipPath id="clip0_6_302">
<rect width="32" height="32" fill="white"/>
</clipPath>
</defs>
</svg>
