<svg width="24" height="24" viewBox="0 0 24 24" fill="none" xmlns="http://www.w3.org/2000/svg">
<g clip-path="url(#clip0_6_1120)">
<mask id="mask0_6_1120" style="mask-type:luminance" maskUnits="userSpaceOnUse" x="0" y="0" width="24" height="24">
<path d="M24 0H0V24H24V0Z" fill="white"/>
</mask>
<g mask="url(#mask0_6_1120)">
<mask id="mask1_6_1120" style="mask-type:alpha" maskUnits="userSpaceOnUse" x="0" y="0" width="24" height="24">
<path d="M24 0H0V24H24V0Z" fill="#D9D9D9"/>
</mask>
<g mask="url(#mask1_6_1120)">
<path d="M6.00024 22C5.45024 22 4.97941 21.8042 4.58774 21.4125C4.19608 21.0209 4.00024 20.55 4.00024 20V18C4.00024 17.7167 4.09608 17.4792 4.28774 17.2875C4.47941 17.0959 4.71691 17 5.00024 17H19.0003C19.2836 17 19.5211 17.0959 19.7128 17.2875C19.9044 17.4792 20.0003 17.7167 20.0003 18V20C20.0003 20.55 19.8044 21.0209 19.4128 21.4125C19.0211 21.8042 18.5503 22 18.0003 22H6.00024ZM13.0003 4V8C13.0003 8.28333 13.0961 8.52083 13.2878 8.7125C13.4794 8.90417 13.7169 9 14.0003 9H18.0003L13.0003 4ZM4.00024 4C4.00024 3.45 4.19608 2.97917 4.58774 2.5875C4.97941 2.19583 5.45024 2 6.00024 2H13.1753C13.4419 2 13.6961 2.05 13.9378 2.15C14.1794 2.25 14.3919 2.39167 14.5753 2.575L19.4253 7.425C19.6086 7.60833 19.7503 7.82083 19.8503 8.0625C19.9503 8.30417 20.0003 8.55833 20.0003 8.825V10C20.0003 10.2834 19.9044 10.5209 19.7128 10.7125C19.5211 10.9042 19.2836 11 19.0003 11H5.00024C4.71691 11 4.47941 10.9042 4.28774 10.7125C4.09608 10.5209 4.00024 10.2834 4.00024 10V4ZM10.0003 15C9.71691 15 9.47941 14.9042 9.28775 14.7125C9.09608 14.5209 9.00024 14.2834 9.00024 14C9.00024 13.7167 9.09608 13.4792 9.28775 13.2875C9.47941 13.0959 9.71691 13 10.0003 13H14.0003C14.2836 13 14.5211 13.0959 14.7128 13.2875C14.9044 13.4792 15.0003 13.7167 15.0003 14C15.0003 14.2834 14.9044 14.5209 14.7128 14.7125C14.5211 14.9042 14.2836 15 14.0003 15H10.0003ZM18.0003 15C17.7169 15 17.4794 14.9042 17.2878 14.7125C17.0961 14.5209 17.0003 14.2834 17.0003 14C17.0003 13.7167 17.0961 13.4792 17.2878 13.2875C17.4794 13.0959 17.7169 13 18.0003 13H22.0003C22.2836 13 22.5211 13.0959 22.7128 13.2875C22.9044 13.4792 23.0003 13.7167 23.0003 14C23.0003 14.2834 22.9044 14.5209 22.7128 14.7125C22.5211 14.9042 22.2836 15 22.0003 15H18.0003ZM2.00024 15C1.71691 15 1.47941 14.9042 1.28774 14.7125C1.09608 14.5209 1.00024 14.2834 1.00024 14C1.00024 13.7167 1.09608 13.4792 1.28774 13.2875C1.47941 13.0959 1.71691 13 2.00024 13H6.00024C6.28358 13 6.52108 13.0959 6.71274 13.2875C6.90441 13.4792 7.00024 13.7167 7.00024 14C7.00024 14.2834 6.90441 14.5209 6.71274 14.7125C6.52108 14.9042 6.28358 15 6.00024 15H2.00024Z" fill="#B2BCD6"/>
</g>
</g>
</g>
<defs>
<clipPath id="clip0_6_1120">
<rect width="24" height="24" fill="white"/>
</clipPath>
</defs>
</svg>
