<svg width="32" height="32" viewBox="0 0 32 32" fill="none" xmlns="http://www.w3.org/2000/svg">
<mask id="mask0_6_307" style="mask-type:alpha" maskUnits="userSpaceOnUse" x="0" y="0" width="32" height="32">
<rect width="32" height="32" fill="#D9D9D9"/>
</mask>
<g mask="url(#mask0_6_307)">
<path d="M16 28.6666C14.2496 28.6666 12.6039 28.3338 11.063 27.668C9.5219 27.0022 8.18123 26.0992 7.04101 24.959C5.90079 23.8188 4.99779 22.4781 4.33201 20.937C3.66623 19.3961 3.33334 17.7504 3.33334 16C3.33334 14.2495 3.66623 12.6039 4.33201 11.063C4.99779 9.52187 5.90079 8.1812 7.04101 7.04098C8.18123 5.90076 9.5219 4.99776 11.063 4.33198C12.6039 3.6662 14.2496 3.33331 16 3.33331C17.1093 3.33331 18.1846 3.47476 19.2257 3.75765C20.2668 4.04053 21.2626 4.44953 22.213 4.98465C22.4692 5.1282 22.6367 5.33509 22.7153 5.60531C22.794 5.87531 22.7479 6.12742 22.577 6.36165C22.4061 6.59587 22.18 6.74242 21.8987 6.80131C21.6176 6.8602 21.3462 6.81787 21.0847 6.67431C20.3051 6.23853 19.485 5.90609 18.6243 5.67698C17.7637 5.44787 16.8889 5.33331 16 5.33331C13.0445 5.33331 10.5278 6.3722 8.45001 8.44998C6.37223 10.5278 5.33334 13.0444 5.33334 16C5.33334 18.9555 6.37223 21.4722 8.45001 23.55C10.5278 25.6278 13.0445 26.6666 16 26.6666C18.9556 26.6666 21.4722 25.6278 23.55 23.55C25.6278 21.4722 26.6667 18.9555 26.6667 16C26.6667 15.7453 26.6569 15.4962 26.6373 15.2526C26.6176 15.0089 26.5838 14.7596 26.536 14.505C26.4916 14.2212 26.5402 13.9499 26.682 13.691C26.824 13.4321 27.0368 13.2642 27.3203 13.1873C27.5906 13.1102 27.8406 13.1435 28.0703 13.2873C28.3003 13.4309 28.4376 13.6376 28.482 13.9076C28.5436 14.2443 28.5897 14.5853 28.6203 14.9306C28.6512 15.276 28.6667 15.6324 28.6667 16C28.6667 17.7504 28.3338 19.3961 27.668 20.937C27.0022 22.4781 26.0992 23.8188 24.959 24.959C23.8188 26.0992 22.4781 27.0022 20.937 27.668C19.3961 28.3338 17.7505 28.6666 16 28.6666ZM14.1077 18.8616L26.559 6.38965C26.7437 6.2052 26.9723 6.10742 27.245 6.09631C27.5175 6.0852 27.7571 6.18298 27.964 6.38965C28.1571 6.58298 28.2537 6.8172 28.2537 7.09231C28.2537 7.36742 28.1571 7.60165 27.964 7.79498L14.9513 20.8283C14.7102 21.0692 14.429 21.1896 14.1077 21.1896C13.7863 21.1896 13.5051 21.0692 13.264 20.8283L9.60501 17.1693C9.42057 16.9846 9.32612 16.7525 9.32168 16.473C9.31745 16.1936 9.4119 15.9573 9.60501 15.764C9.79834 15.5709 10.0326 15.4743 10.3077 15.4743C10.5828 15.4743 10.817 15.5709 11.0103 15.764L14.1077 18.8616Z" fill="#3B69E3"/>
</g>
</svg>
