<svg width="24" height="24" viewBox="0 0 24 24" fill="none" xmlns="http://www.w3.org/2000/svg">
<path d="M19 3H5C3.89543 3 3 3.89543 3 5V19C3 20.1046 3.89543 21 5 21H19C20.1046 21 21 20.1046 21 19V5C21 3.89543 20.1046 3 19 3Z" fill="#B2BCD6"/>
<path d="M6.87001 13.81C7.40001 14.79 7.94001 14.98 8.36001 14.98C9.27001 14.98 9.62002 14.58 9.62002 14.03C9.62002 12.71 5.98001 13.3 5.98001 10.65C5.98001 9.34002 7.01002 8.52002 8.52002 8.52002C9.37002 8.52002 10.5 9.04002 11.01 10.37L9.68003 10.86C9.33003 9.98002 8.85002 9.81002 8.52002 9.81002C7.83002 9.81002 7.49001 10.19 7.49001 10.65C7.49001 11.96 11.13 11.57 11.13 14.03C11.13 15.35 10.09 16.27 8.36001 16.27C7.23001 16.27 6.29001 15.59 5.64001 14.51L6.87001 13.81ZM15.4452 12.4C16.1352 12.4 16.6152 11.88 16.6152 11.15C16.6152 10.42 16.1352 9.90002 15.4452 9.90002H13.9752V12.4H15.4452ZM12.4552 16.18V8.60002H15.4952C17.0452 8.60002 18.1352 9.65002 18.1352 11.15C18.1352 12.65 17.0452 13.7 15.4952 13.7H13.9752V16.18H12.4552Z" fill="#F5F6FA"/>
</svg>
