<svg width="24" height="24" viewBox="0 0 24 24" fill="none" xmlns="http://www.w3.org/2000/svg">
<path d="M19 3C20.1046 3 21 3.89543 21 5V19C21 20.1046 20.1046 21 19 21H5C3.89543 21 3 20.1046 3 19V5C3 3.89543 3.89543 3 5 3H19ZM8.52051 8.52051C7.01051 8.52051 5.98047 9.34041 5.98047 10.6504C5.98083 13.2999 9.62012 12.7103 9.62012 14.0303C9.62 14.5801 9.26995 14.9804 8.36035 14.9805C7.94035 14.9805 7.40012 14.7896 6.87012 13.8096L5.63965 14.5098C6.28965 15.5898 7.23035 16.2695 8.36035 16.2695C10.09 16.2694 11.1297 15.35 11.1299 14.0303C11.1299 11.5705 7.49096 11.9599 7.49023 10.6504C7.49023 10.1904 7.83051 9.80957 8.52051 9.80957C8.85049 9.80974 9.32986 9.9808 9.67969 10.8604L11.0098 10.3701C10.4999 9.04039 9.37045 8.52071 8.52051 8.52051ZM12.4551 8.59961V16.1797H13.9756V13.7002H15.4951C17.045 13.7002 18.1346 12.6502 18.1348 11.1504C18.1348 9.65041 17.0451 8.59961 15.4951 8.59961H12.4551ZM15.4453 9.90039C16.1353 9.90044 16.6152 10.4204 16.6152 11.1504C16.6151 11.8801 16.1351 12.4003 15.4453 12.4004H13.9756V9.90039H15.4453Z" fill="#F5F6FA"/>
</svg>
