<svg width="32" height="32" viewBox="0 0 32 32" fill="none" xmlns="http://www.w3.org/2000/svg">
<path d="M18.9823 24.6166L20.84 26.4744L24.5556 22.7589" stroke="#3B69E3" stroke-width="2" stroke-linecap="round" stroke-linejoin="round"/>
<path d="M16.1957 14.6189C16.0734 14.6067 15.9268 14.6067 15.7923 14.6189C12.8834 14.5211 10.5734 12.1378 10.5734 9.20444C10.5612 6.20999 12.9934 3.77777 15.9879 3.77777C18.9823 3.77777 21.4146 6.20999 21.4146 9.20444C21.4146 12.1378 19.0923 14.5211 16.1957 14.6189Z" stroke="#3B69E3" stroke-width="2" stroke-linecap="round" stroke-linejoin="round"/>
<path d="M15.9873 27.99C13.7629 27.99 11.5507 27.4278 9.86399 26.3033C6.90622 24.3233 6.90622 21.0966 9.86399 19.1289C13.2251 16.88 18.7373 16.88 22.0984 19.1289" stroke="#3B69E3" stroke-width="2" stroke-linecap="round" stroke-linejoin="round"/>
</svg>
