<svg width="32" height="32" viewBox="0 0 32 32" fill="none" xmlns="http://www.w3.org/2000/svg">
<path d="M23.8339 23.4433L20.3872 26.89" stroke="#FA4C4C" stroke-width="2" stroke-linecap="round" stroke-linejoin="round"/>
<path d="M23.8339 26.89L20.3872 23.4433" stroke="#FA4C4C" stroke-width="2" stroke-linecap="round" stroke-linejoin="round"/>
<path d="M16.1956 14.6189C16.0734 14.6067 15.9267 14.6067 15.7923 14.6189C12.8834 14.5211 10.5734 12.1378 10.5734 9.20444C10.5734 6.20999 12.9934 3.77777 16.0001 3.77777C18.9945 3.77777 21.4267 6.20999 21.4267 9.20444C21.4145 12.1378 19.1045 14.5211 16.1956 14.6189Z" stroke="#FA4C4C" stroke-width="2" stroke-linecap="round" stroke-linejoin="round"/>
<path d="M15.9997 27.99C13.7753 27.99 11.5631 27.4278 9.87638 26.3033C6.91861 24.3233 6.91861 21.0966 9.87638 19.1289C13.2375 16.88 18.7497 16.88 22.1108 19.1289" stroke="#FA4C4C" stroke-width="2" stroke-linecap="round" stroke-linejoin="round"/>
</svg>
