<svg width="32" height="32" viewBox="0 0 32 32" fill="none" xmlns="http://www.w3.org/2000/svg">
<mask id="mask0_6_295" style="mask-type:alpha" maskUnits="userSpaceOnUse" x="0" y="0" width="32" height="32">
<rect width="32" height="32" fill="#D9D9D9"/>
</mask>
<g mask="url(#mask0_6_295)">
<path d="M16.0007 17.405L9.23669 24.1693C9.05202 24.3538 8.81991 24.4482 8.54035 24.4527C8.26102 24.4569 8.02469 24.3625 7.83135 24.1693C7.63824 23.976 7.54169 23.7418 7.54169 23.4667C7.54169 23.1916 7.63824 22.9573 7.83135 22.764L14.5957 16L7.83135 9.23602C7.64691 9.05135 7.55246 8.81924 7.54802 8.53968C7.5438 8.26035 7.63824 8.02402 7.83135 7.83068C8.02469 7.63757 8.25891 7.54102 8.53402 7.54102C8.80913 7.54102 9.04335 7.63757 9.23669 7.83068L16.0007 14.595L22.7647 7.83068C22.9494 7.64624 23.1815 7.55179 23.461 7.54735C23.7404 7.54313 23.9767 7.63757 24.17 7.83068C24.3631 8.02402 24.4597 8.25824 24.4597 8.53335C24.4597 8.80846 24.3631 9.04268 24.17 9.23602L17.4057 16L24.17 22.764C24.3545 22.9487 24.4489 23.1808 24.4534 23.4603C24.4576 23.7397 24.3631 23.976 24.17 24.1693C23.9767 24.3625 23.7425 24.459 23.4674 24.459C23.1922 24.459 22.958 24.3625 22.7647 24.1693L16.0007 17.405Z" fill="#414141"/>
</g>
</svg>
